<svg id="adobe-xd" xmlns="http://www.w3.org/2000/svg" width="58.711" height="57.244" viewBox="0 0 58.711 57.244">
  <path id="Path_11" data-name="Path 11" d="M48.315,57.243H10.4A10.387,10.387,0,0,1,0,46.847V10.4A10.387,10.387,0,0,1,10.4,0H48.315a10.387,10.387,0,0,1,10.4,10.4v36.45A10.387,10.387,0,0,1,48.315,57.243Z" fill="#ff26be"/>
  <path id="Path_12" data-name="Path 12" d="M149.137,156.549H113.079a8.9,8.9,0,0,1-8.879-8.879v-34.59a8.9,8.9,0,0,1,8.879-8.879h36.035a8.879,8.879,0,0,1,8.879,8.879v34.567a8.865,8.865,0,0,1-8.856,8.9Z" transform="translate(-101.753 -101.753)" fill="#2e001f"/>
  <path id="Path_13" data-name="Path 13" d="M478.944,605.665l6.85,13.161c.122.195.049.392-.148.392h-4.258a.48.48,0,0,1-.514-.317c-1.566-3.229-3.156-6.458-4.8-9.932h-.049c-1.468,3.279-3.083,6.728-4.648,9.957a.472.472,0,0,1-.441.27h-4.032c-.244,0-.27-.195-.146-.343l6.7-12.771-6.482-12.916a.2.2,0,0,1,.146-.343h4.208c.244,0,.343.049.439.27,1.541,3.229,3.107,6.557,4.575,9.81h.049c1.418-3.229,2.985-6.58,4.5-9.786.122-.195.195-.317.442-.317h3.938c.195,0,.27.148.148.343Zm8.051,3.988c0-5.7,3.793-10.152,9.809-10.152a10.771,10.771,0,0,1,1.273.049v-6.482a.244.244,0,0,1,.244-.244h3.866c.195,0,.244.073.244.195v22.458a17.473,17.473,0,0,0,.122,2.4c0,.148-.049.195-.195.27a14.563,14.563,0,0,1-6.263,1.419c-5.31.021-9.1-3.255-9.1-9.911Zm11.08-6.261a3.676,3.676,0,0,0-1.419-.244c-3.083,0-5.235,2.372-5.235,6.313,0,4.5,2.2,6.313,4.967,6.313a4.585,4.585,0,0,0,1.689-.27V603.391Z" transform="translate(-455.73 -578.878)" fill="#ffd9f2"/>
</svg>
