<svg id="html_1_" data-name="html (1)" xmlns="http://www.w3.org/2000/svg" width="43.853" height="61.899" viewBox="0 0 43.853 61.899">
  <path id="Path_29" data-name="Path 29" d="M44.3,70.766l-4,44.756L22.345,120.5,4.436,115.529.445,70.766H44.3Z" transform="translate(-0.445 -58.601)" fill="#e44d26"/>
  <path id="Path_30" data-name="Path 30" d="M128,134.326l14.511-4.023,3.414-38.246H128Z" transform="translate(-106.073 -76.232)" fill="#f16529"/>
  <path id="Path_31" data-name="Path 31" d="M53.917,129.485h7.766V124H47.917l.131,1.473L49.4,140.6H61.683v-5.49H54.419Zm1.237,13.857H49.643l.769,8.62,11.246,3.122.025-.007v-5.712l-.024.006-6.114-1.651-.391-4.378Z" transform="translate(-39.757 -102.68)" fill="#ebebeb"/>
  <path id="Path_32" data-name="Path 32" d="M24.18,0h2.79V2.756h2.552V0h2.79V8.347h-2.79v-2.8H26.97v2.8H24.18V0Zm11.8,2.768H33.525V0h7.7V2.768H38.771V8.347h-2.79V2.768h0ZM42.451,0H45.36L47.15,2.933,48.938,0h2.91V8.347H49.069V4.21L47.15,7.178H47.1L45.181,4.21V8.347h-2.73ZM53.236,0h2.791V5.588H59.95V8.347H53.236V0Z" transform="translate(-20.1)"/>
  <path id="Path_33" data-name="Path 33" d="M127.889,140.6h6.76l-.637,7.12-6.123,1.653v5.712l11.255-3.119.083-.928,1.29-14.453.134-1.474H127.889v5.49Zm0-11.125v.013H141.15l.11-1.234.25-2.783.131-1.473H127.889v5.477Z" transform="translate(-105.981 -102.68)" fill="#fff"/>
</svg>
