<svg xmlns="http://www.w3.org/2000/svg" width="160" height="160" viewBox="0 0 160 160">
  <g id="Group_90" data-name="Group 90" transform="translate(-304 -1834)">
    <circle id="Ellipse_25" data-name="Ellipse 25" cx="80" cy="80" r="80" transform="translate(304 1834)" fill="#de753d"/>
    <g id="icons8-linkedin-2" transform="translate(348.803 1874.714)">
      <path id="Path_465" data-name="Path 465" d="M21.823,24.467v47.9a1.655,1.655,0,0,1-1.652,1.652H3.652A1.655,1.655,0,0,1,2,72.371v-47.9a1.655,1.655,0,0,1,1.652-1.652H20.171A1.655,1.655,0,0,1,21.823,24.467Zm-.019-13.4c0,4.923-4.162,8.421-9.892,8.421-5.633,0-9.892-3.581-9.892-8.324,0-4.723,4.162-8.156,9.892-8.156C17.461,3.012,21.539,6.328,21.8,11.071ZM77.986,44.289V72.371a1.655,1.655,0,0,1-1.652,1.652H61.468a1.655,1.655,0,0,1-1.652-1.652v-25.6a7.41,7.41,0,0,0-6.84-7.4,5.478,5.478,0,0,0-1.187,0,7.41,7.41,0,0,0-6.84,7.4v25.6A1.655,1.655,0,0,1,43.3,74.023H28.43a1.655,1.655,0,0,1-1.652-1.652v-47.9a1.655,1.655,0,0,1,1.652-1.652H44.949A1.655,1.655,0,0,1,46.6,24.467v2.458a22.347,22.347,0,0,1,12.867-4.11C72.257,22.815,77.986,33.6,77.986,44.289Zm0,0" transform="translate(-2 -3.012)" fill="#fff"/>
    </g>
  </g>
</svg>
