<svg id="react" xmlns="http://www.w3.org/2000/svg" width="46.938" height="57.252" viewBox="0 0 46.938 57.252">
  <ellipse id="Ellipse_13" data-name="Ellipse 13" cx="4.288" cy="4.288" rx="4.288" ry="4.288" transform="translate(19.181 16.645)" fill="#61dafb"/>
  <path id="Path_34" data-name="Path 34" d="M36.569,38.8c3.366,3.274,6.686,5.21,9.36,5.21a4.633,4.633,0,0,0,2.4-.6c2.4-1.383,3.274-4.841,2.444-9.775-.138-.876-.323-1.752-.553-2.674.922-.277,1.752-.553,2.582-.83,4.657-1.8,7.239-4.288,7.239-7.008,0-2.766-2.582-5.256-7.239-7.008a21.151,21.151,0,0,0-2.582-.83c.231-.922.415-1.8.553-2.674.784-5.026-.092-8.53-2.49-9.913a4.633,4.633,0,0,0-2.4-.6c-2.628,0-5.994,1.937-9.36,5.21C33.2,4.037,29.883,2.1,27.209,2.1a4.633,4.633,0,0,0-2.4.6c-2.4,1.383-3.274,4.841-2.444,9.775.138.876.323,1.752.553,2.674-.922.277-1.752.553-2.582.83-4.657,1.8-7.239,4.288-7.239,7.008,0,2.766,2.582,5.256,7.239,7.008a21.152,21.152,0,0,0,2.582.83c-.231.922-.415,1.8-.553,2.674-.784,4.934.092,8.438,2.444,9.775a4.633,4.633,0,0,0,2.4.6c2.674.092,5.994-1.844,9.36-5.072Zm-2.582-6.225c.83.046,1.706.046,2.582.046s1.752,0,2.582-.046c-.83,1.107-1.706,2.121-2.582,3.089C35.693,34.7,34.817,33.684,33.987,32.577ZM28.27,27.828c.461.784.876,1.522,1.383,2.259-1.429-.184-2.766-.415-4.057-.692.415-1.245.876-2.536,1.429-3.827.369.738.784,1.522,1.245,2.259ZM25.6,16.716c1.291-.277,2.628-.507,4.057-.692-.461.738-.922,1.475-1.383,2.259s-.876,1.522-1.245,2.305A30.823,30.823,0,0,1,25.6,16.716Zm2.536,6.317c.6-1.245,1.245-2.49,1.983-3.735.692-1.2,1.475-2.4,2.259-3.6,1.383-.092,2.766-.138,4.2-.138,1.475,0,2.859.046,4.2.138.83,1.2,1.568,2.4,2.259,3.6.738,1.245,1.383,2.49,1.983,3.735-.6,1.245-1.245,2.49-1.983,3.735-.692,1.2-1.475,2.4-2.259,3.6-1.383.092-2.766.138-4.2.138-1.475,0-2.859-.046-4.2-.138-.83-1.2-1.568-2.4-2.259-3.6C29.376,25.523,28.731,24.278,28.131,23.033Zm18.028-2.49-1.245-2.305c-.461-.784-.876-1.522-1.383-2.259,1.429.184,2.766.415,4.057.692-.415,1.291-.876,2.582-1.429,3.873Zm0,4.98c.553,1.291,1.014,2.582,1.429,3.827-1.291.277-2.628.507-4.057.692.461-.738.922-1.475,1.383-2.259.415-.692.83-1.475,1.245-2.259Zm1.06,16a2.5,2.5,0,0,1-1.337.323c-2.259,0-5.072-1.844-7.838-4.611a48.273,48.273,0,0,0,3.919-4.841,42.227,42.227,0,0,0,6.178-.968,23.835,23.835,0,0,1,.507,2.49C49.295,37.834,48.788,40.646,47.22,41.522Zm2.4-24.3c5.164,1.475,8.253,3.735,8.253,5.81,0,1.8-2.121,3.6-5.856,5.026-.738.277-1.568.553-2.4.784a48.461,48.461,0,0,0-2.259-5.81,41.761,41.761,0,0,0,2.259-5.81Zm-3.689-13a2.612,2.612,0,0,1,1.337.323c1.522.876,2.075,3.643,1.429,7.608-.138.784-.323,1.614-.507,2.49a59.837,59.837,0,0,0-6.178-.968,42.6,42.6,0,0,0-3.919-4.841C40.857,6.111,43.67,4.221,45.929,4.221Zm-6.778,9.268c-.83-.046-1.706-.046-2.582-.046s-1.752,0-2.582.046c.83-1.107,1.706-2.121,2.582-3.089C37.445,11.368,38.321,12.428,39.151,13.489ZM25.918,4.544a2.5,2.5,0,0,1,1.337-.323c2.259,0,5.072,1.844,7.838,4.611a48.273,48.273,0,0,0-3.919,4.841A42.227,42.227,0,0,0,25,14.641a23.834,23.834,0,0,1-.507-2.49C23.843,8.232,24.35,5.466,25.918,4.544Zm-2.4,24.3c-5.164-1.475-8.253-3.735-8.253-5.81,0-1.8,2.121-3.6,5.856-5.026.738-.277,1.568-.553,2.4-.784a48.461,48.461,0,0,0,2.259,5.81A44.118,44.118,0,0,0,23.52,28.843Zm.968,5.072c.138-.784.323-1.614.507-2.49a59.834,59.834,0,0,0,6.178.968,42.6,42.6,0,0,0,3.919,4.841c-2.766,2.72-5.579,4.611-7.838,4.611a2.612,2.612,0,0,1-1.337-.323C24.35,40.646,23.843,37.834,24.489,33.915Zm-1.937,19a3.76,3.76,0,0,0,.507-4.011,3.247,3.247,0,0,0-3.135-2.075c-1.706-.046-3.458,0-5.164,0h-.323V58.767H15.82V54.248h2.167a.7.7,0,0,1,.646.323L21.4,58.859c.046.092.184.231.277.231h1.8c-1.107-1.706-2.167-3.32-3.274-4.98A3.347,3.347,0,0,0,22.552,52.911Zm-6.732-.092V48.254h.507c1.06,0,2.167-.046,3.228.046a2.176,2.176,0,0,1,2.121,2.259,2.293,2.293,0,0,1-2.259,2.259C18.31,52.865,17.2,52.819,15.82,52.819Zm17.844.6a4.159,4.159,0,0,0-5.948-3.043,4.361,4.361,0,0,0-2.582,4.2A4.47,4.47,0,0,0,26.61,58.26a4.895,4.895,0,0,0,4.334.968A4.228,4.228,0,0,0,33.2,57.983c-.231-.323-.461-.646-.692-.922a3.734,3.734,0,0,1-4.288.738,3.425,3.425,0,0,1-1.614-2.674h7.147v-.6a2.844,2.844,0,0,0-.092-1.107Zm-6.962.738A2.851,2.851,0,0,1,29.468,51.3a2.653,2.653,0,0,1,2.9,2.859Zm14.155-4.011a8.217,8.217,0,0,0-2.121-.138,4.385,4.385,0,0,0-2.859,1.429c.231.323.415.646.692,1.014a1.223,1.223,0,0,1,.277-.231,3.342,3.342,0,0,1,2.674-.968A1.788,1.788,0,0,1,41.364,52.4a9.771,9.771,0,0,1,.184,2.029.271.271,0,0,1-.231-.092,3.982,3.982,0,0,0-3.689-.784,2.745,2.745,0,0,0-2.121,2.536,2.815,2.815,0,0,0,1.8,3,4.168,4.168,0,0,0,2.49.138c.646-.138.922-.507,1.844-1.014v.6h1.291c0-1.844.046-4.1,0-6.225a2.364,2.364,0,0,0-2.075-2.444Zm.646,5.81a1.254,1.254,0,0,0,0,.415c0,.968-.231,1.291-1.153,1.66a3.058,3.058,0,0,1-2.029.092,1.814,1.814,0,0,1-1.337-1.706,1.786,1.786,0,0,1,1.245-1.8,3,3,0,0,1,2.9.507A.773.773,0,0,1,41.5,55.954ZM48.7,51.389a2.736,2.736,0,0,1,3.135.876l.138.092c.323-.277.6-.553.968-.876a1.924,1.924,0,0,1-.277-.369,4.51,4.51,0,0,0-5.579-.461,5.091,5.091,0,0,0-1.107,6.593,4.223,4.223,0,0,0,4.38,1.937,3.888,3.888,0,0,0,2.628-1.522c-.323-.277-.646-.553-.968-.876a.809.809,0,0,0-.184.231,2.825,2.825,0,0,1-4.426-.231,3.645,3.645,0,0,1-.6-2.9,2.7,2.7,0,0,1,1.89-2.49Zm9.59,6.271a.571.571,0,0,0-.138.092,1.167,1.167,0,0,1-1.153.184c-.415-.184-.461-.553-.507-.922V51.758c0-.092,0,.092.046-.369h1.752V50.006H56.441V47.7H55.058v2.49h-1.2c-.092,0-.231.092-.231.184a7.37,7.37,0,0,0,0,1.014H55.1v5.9a1.828,1.828,0,0,0,.83,1.752,2.671,2.671,0,0,0,2.628-.184c.092-.046.138-.231.138-.277C58.562,58.306,58.424,57.983,58.286,57.66Z" transform="translate(-13.1 -2.1)" fill="#61dafb"/>
</svg>
