<svg xmlns="http://www.w3.org/2000/svg" width="160" height="160" viewBox="0 0 160 160">
  <g id="Group_89" data-name="Group 89" transform="translate(-304 -1650)">
    <circle id="Ellipse_27" data-name="Ellipse 27" cx="80" cy="80" r="80" transform="translate(304 1650)" fill="#1ecae0"/>
    <circle id="Ellipse_26" data-name="Ellipse 26" cx="80" cy="80" r="80" transform="translate(304 1650)" fill="#1ecae0"/>
    <g id="twitter" transform="translate(344 1697)">
      <g id="Group_7" data-name="Group 7" transform="translate(0)">
        <path id="Path_466" data-name="Path 466" d="M80.789,55.771a34.531,34.531,0,0,1-9.543,2.616,16.469,16.469,0,0,0,7.286-9.154,33.1,33.1,0,0,1-10.5,4.009A16.561,16.561,0,0,0,39.38,64.567a17.054,17.054,0,0,0,.384,3.777A46.88,46.88,0,0,1,5.625,51.019a16.567,16.567,0,0,0,5.09,22.136,16.356,16.356,0,0,1-7.483-2.04V71.3A16.639,16.639,0,0,0,16.5,87.571a16.53,16.53,0,0,1-4.342.545,14.644,14.644,0,0,1-3.136-.283A16.72,16.72,0,0,0,24.5,99.372a33.279,33.279,0,0,1-20.536,7.064A31.025,31.025,0,0,1,0,106.208a46.628,46.628,0,0,0,25.408,7.433c30.478,0,47.14-25.247,47.14-47.13,0-.732-.025-1.439-.061-2.141A33.041,33.041,0,0,0,80.789,55.771Z" transform="translate(0 -48)" fill="#fff"/>
      </g>
    </g>
  </g>
</svg>
